<?xml version="1.0" standalone="no"?>
<!DOCTYPE svg PUBLIC "-//W3C//DTD SVG 20010904//EN"
 "http://www.w3.org/TR/2001/REC-SVG-20010904/DTD/svg10.dtd">
<svg version="1.0" xmlns="http://www.w3.org/2000/svg"
 width="500.000000pt" height="500.000000pt" viewBox="0 0 500.000000 500.000000"
 preserveAspectRatio="xMidYMid meet">
<metadata>
Created by potrace 1.11, written by Peter Selinger 2001-2013
</metadata>
<g transform="translate(0.000000,500.000000) scale(0.100000,-0.100000)"
fill="#000000" stroke="none">
<path d="M2328 4996 c-1 -2 -37 -6 -78 -10 -95 -8 -118 -12 -268 -42 -107 -21
-359 -96 -417 -124 -11 -5 -76 -35 -145 -68 -263 -123 -482 -280 -700 -501
-188 -190 -328 -384 -450 -625 -61 -120 -131 -290 -160 -391 -26 -92 -59 -222
-64 -255 -3 -19 -13 -80 -22 -135 -19 -114 -26 -441 -13 -575 47 -476 211
-897 498 -1280 85 -113 318 -358 396 -415 22 -17 49 -38 60 -48 45 -42 278
-190 387 -246 192 -99 422 -184 583 -215 11 -2 27 -7 35 -10 8 -3 31 -8 50
-10 19 -3 82 -13 140 -23 113 -18 442 -24 583 -11 363 34 728 156 1050 350 98
59 214 139 267 184 244 207 394 375 540 599 58 90 174 309 209 393 88 215 153
474 178 707 12 108 9 449 -5 560 -19 144 -75 399 -102 460 -5 11 -12 31 -15
45 -15 56 -91 232 -146 339 -86 165 -201 337 -319 476 -35 42 -216 222 -270
270 -217 192 -534 372 -820 468 -193 65 -290 88 -495 118 -71 10 -478 22 -487
15z m412 -682 c202 -29 366 -78 548 -165 104 -49 305 -172 348 -212 6 -7 43
-39 80 -72 203 -176 369 -413 487 -695 19 -46 64 -186 73 -230 4 -19 9 -39 10
-45 2 -5 5 -23 9 -40 3 -16 7 -39 10 -50 14 -64 20 -171 19 -335 -1 -159 -5
-203 -28 -313 -37 -179 -78 -302 -151 -453 -181 -374 -469 -663 -840 -844
-110 -54 -302 -126 -364 -136 -14 -3 -32 -7 -39 -9 -31 -11 -215 -36 -304 -42
l-98 -6 0 917 0 916 -916 0 -916 0 6 103 c3 56 8 113 11 127 2 14 6 41 9 60 9
69 36 178 67 276 32 101 112 286 136 315 7 8 13 19 13 23 0 4 25 45 56 92 187
283 428 497 729 645 140 69 351 141 452 154 12 2 34 6 50 9 15 3 51 8 78 12
28 3 51 7 53 9 9 9 334 0 412 -11z"/>
</g>
</svg>
